# xmcd CD database file
#
# Track frame offsets:
#	150
#	14826
#	33449
#	49301
#	67719
#	87171
#	105964
#	126366
#	140634
#	155870
#	174253
#	190860
#
# Disc length: 2767 seconds
#
# Revision: 2
# Processed by: cddbd v1.5.2PL0 Copyright (c) Steve Scherf et al.
# Submitted via: CDex 1.70beta2
#
DISCID=a10acd0c
DTITLE=Jim Brickman - Valentine
DYEAR=2008
DGENRE=New Age
TTITLE0=Valentine (New Instrumental Version)
TTITLE1=To Hear You Say You Love Me (With Jake Simpson, Vocal)
TTITLE2=Escape (Remake)
TTITLE3=Sundown
TTITLE4=Reflection
TTITLE5=You (With Tara McLean, Vocal)
TTITLE6=Open
TTITLE7=Brazil Sunset
TTITLE8=Sacred Moment (After J. S. Bach)
TTITLE9=Love Of My Life (With Tom Douglas, vocal)
TTITLE10=Never Alone (Featuring Lady Antebellum)
TTITLE11=Destiny (Featuring Jaci Valesquez)
EXTD=YEAR: 2008
EXTT0=
EXTT1=
EXTT2=
EXTT3=
EXTT4=
EXTT5=
EXTT6=
EXTT7=
EXTT8=
EXTT9=
EXTT10=
EXTT11=
PLAYORDER=
